<?xml version="1.0" encoding="UTF-8"?>
<svg xmlns="http://www.w3.org/2000/svg" xmlns:xlink="http://www.w3.org/1999/xlink" width="50px" height="49px" viewBox="0 0 49 49" version="1.1">
<g id="surface1">
<path style=" stroke:none;fill-rule:nonzero;fill:rgb(0%,0%,0%);fill-opacity:1;" d="M 22.90625 5.65625 C 22.25 5.828125 21.242188 6.402344 20.941406 6.769531 C 20.8125 6.933594 20.785156 7 20.652344 7.523438 C 20.503906 8.128906 20.378906 8.4375 20.199219 8.691406 C 20.121094 8.796875 20.074219 8.886719 20.089844 8.894531 C 20.164062 8.917969 20.511719 8.792969 20.730469 8.65625 C 21.035156 8.472656 21.429688 8.09375 21.671875 7.757812 C 21.777344 7.605469 21.886719 7.476562 21.910156 7.464844 C 21.972656 7.4375 22.78125 7.851562 22.871094 7.953125 C 23.015625 8.117188 23.054688 8.300781 23.023438 8.75 C 23.011719 8.984375 23.011719 9.1875 23.027344 9.203125 C 23.042969 9.21875 23.105469 9.1875 23.175781 9.136719 C 23.324219 9.023438 23.359375 9.050781 23.238281 9.1875 C 23.140625 9.289062 22.917969 9.726562 22.828125 9.976562 C 22.742188 10.230469 22.601562 10.789062 22.457031 11.492188 C 22.21875 12.660156 22.179688 12.8125 22.109375 12.878906 C 22.074219 12.914062 21.910156 12.976562 21.742188 13.019531 C 21.230469 13.15625 20.496094 13.386719 19.988281 13.578125 C 18.855469 13.996094 18.3125 14.382812 18.277344 14.800781 C 18.261719 15.019531 18.339844 15.15625 18.578125 15.335938 C 19.121094 15.738281 20.144531 15.925781 22.746094 16.109375 C 22.914062 16.121094 23.078125 16.136719 23.109375 16.144531 C 23.140625 16.15625 23.21875 16.242188 23.273438 16.335938 C 23.332031 16.429688 23.460938 16.574219 23.566406 16.652344 C 23.71875 16.773438 23.789062 16.855469 23.734375 16.855469 C 23.726562 16.855469 23.546875 16.902344 23.328125 16.960938 C 22.925781 17.066406 22.683594 17.167969 22.726562 17.210938 C 22.742188 17.226562 22.882812 17.246094 23.042969 17.257812 C 23.378906 17.289062 24.558594 17.484375 24.871094 17.570312 C 25.175781 17.648438 25.515625 17.8125 25.585938 17.914062 C 25.6875 18.0625 25.597656 18.070312 25.339844 17.9375 C 25.203125 17.867188 24.980469 17.777344 24.839844 17.734375 C 24.570312 17.648438 23.269531 17.402344 23.089844 17.402344 L 22.976562 17.402344 L 23.101562 17.523438 C 23.171875 17.59375 23.363281 17.726562 23.53125 17.816406 L 23.832031 17.976562 L 23.503906 18.195312 C 23.308594 18.328125 23.011719 18.480469 22.753906 18.582031 C 22.320312 18.757812 22.027344 18.910156 22.027344 18.972656 C 22.027344 18.992188 22.054688 19.007812 22.082031 19.007812 C 22.109375 19.007812 22.230469 19.039062 22.339844 19.074219 C 22.675781 19.1875 23.054688 19.238281 23.550781 19.238281 C 23.945312 19.234375 23.988281 19.242188 23.835938 19.273438 C 23.742188 19.289062 23.359375 19.308594 23 19.3125 L 22.339844 19.316406 L 22.164062 19.882812 C 21.480469 22.089844 21.195312 22.882812 20.703125 23.917969 C 20.441406 24.472656 20.007812 25.257812 19.847656 25.464844 C 19.777344 25.546875 19.753906 25.554688 19.4375 25.554688 C 19.128906 25.554688 19.09375 25.5625 18.976562 25.652344 C 18.890625 25.71875 18.828125 25.8125 18.789062 25.925781 C 18.726562 26.121094 18.675781 26.484375 18.710938 26.484375 C 18.726562 26.484375 18.875 26.339844 19.046875 26.160156 C 19.21875 25.984375 19.394531 25.820312 19.4375 25.796875 C 19.582031 25.71875 19.597656 25.753906 19.46875 25.867188 C 19.378906 25.953125 19.34375 26.011719 19.34375 26.089844 C 19.34375 26.289062 19.230469 26.449219 18.871094 26.765625 C 18.675781 26.9375 18.484375 27.121094 18.445312 27.179688 L 18.375 27.285156 L 18.453125 27.359375 C 18.496094 27.398438 18.597656 27.453125 18.679688 27.472656 C 18.957031 27.546875 18.996094 27.5625 19.007812 27.605469 C 19.027344 27.660156 18.605469 27.898438 18.328125 27.988281 C 18.058594 28.074219 17.742188 28.0625 17.535156 27.960938 C 17.457031 27.921875 17.289062 27.785156 17.164062 27.664062 C 17.035156 27.535156 16.929688 27.433594 16.925781 27.433594 C 16.917969 27.433594 16.902344 27.492188 16.890625 27.5625 C 16.878906 27.632812 16.84375 27.703125 16.8125 27.714844 C 16.71875 27.75 16.378906 27.546875 16.195312 27.339844 C 15.929688 27.042969 15.824219 26.621094 15.957031 26.359375 C 16.074219 26.132812 15.996094 26.132812 15.765625 26.363281 C 15.660156 26.472656 15.566406 26.609375 15.523438 26.71875 C 15.464844 26.890625 15.464844 26.90625 15.519531 27.128906 C 15.617188 27.507812 15.914062 27.929688 16.257812 28.171875 C 16.347656 28.234375 16.402344 28.289062 16.375 28.300781 C 16.289062 28.332031 15.738281 28 15.53125 27.789062 C 15.414062 27.671875 15.3125 27.585938 15.304688 27.59375 C 15.296875 27.597656 15.328125 27.695312 15.363281 27.808594 C 15.515625 28.261719 16.011719 28.882812 16.542969 29.285156 L 16.808594 29.488281 L 16.679688 29.53125 C 16.523438 29.585938 16.25 29.746094 16.191406 29.820312 C 16.128906 29.898438 15.9375 29.890625 15.597656 29.804688 C 15.445312 29.765625 15.3125 29.738281 15.304688 29.746094 C 15.28125 29.769531 15.558594 29.988281 15.71875 30.0625 L 15.875 30.136719 L 15.792969 30.226562 C 15.652344 30.375 15.304688 30.527344 14.941406 30.585938 C 14.300781 30.695312 13.984375 30.652344 13.835938 30.4375 C 13.699219 30.242188 13.539062 29.527344 13.539062 29.109375 C 13.539062 29.03125 13.523438 28.964844 13.507812 28.964844 C 13.488281 28.964844 13.332031 29.121094 13.160156 29.3125 C 12.988281 29.5 12.835938 29.660156 12.824219 29.660156 C 12.8125 29.660156 12.675781 29.558594 12.523438 29.4375 C 12.367188 29.320312 12.226562 29.226562 12.214844 29.238281 C 12.199219 29.25 12.183594 29.359375 12.183594 29.484375 C 12.183594 29.609375 12.144531 29.824219 12.101562 29.96875 C 12.058594 30.105469 12.023438 30.304688 12.019531 30.40625 C 12.015625 30.609375 12.097656 30.554688 11.3125 30.867188 C 11.097656 30.945312 10.925781 31.027344 10.925781 31.042969 C 10.925781 31.058594 11 31.121094 11.097656 31.175781 C 11.191406 31.230469 11.382812 31.355469 11.527344 31.453125 C 11.804688 31.644531 11.839844 31.722656 11.730469 31.921875 C 11.628906 32.097656 11.652344 32.113281 11.945312 32.085938 C 12.203125 32.0625 12.214844 32.0625 12.246094 32.144531 C 12.269531 32.191406 12.316406 32.53125 12.359375 32.902344 C 12.398438 33.273438 12.4375 33.582031 12.445312 33.589844 C 12.484375 33.632812 13.164062 32.964844 13.433594 32.621094 C 13.496094 32.535156 13.570312 32.46875 13.59375 32.46875 C 13.613281 32.46875 13.832031 32.574219 14.074219 32.703125 C 14.316406 32.835938 14.519531 32.9375 14.53125 32.929688 C 14.539062 32.917969 14.488281 32.664062 14.421875 32.363281 C 14.347656 32.058594 14.292969 31.777344 14.292969 31.738281 C 14.292969 31.699219 14.378906 31.550781 14.484375 31.410156 C 14.589844 31.261719 14.722656 31.054688 14.777344 30.941406 C 14.832031 30.824219 14.898438 30.722656 14.917969 30.707031 C 14.9375 30.695312 15.097656 30.679688 15.269531 30.679688 C 15.710938 30.679688 16.195312 30.570312 16.882812 30.320312 C 17.457031 30.105469 18.296875 29.859375 18.328125 29.890625 C 18.390625 29.953125 17.957031 30.394531 17.714844 30.515625 C 17.605469 30.570312 17.515625 30.625 17.515625 30.636719 C 17.515625 30.644531 17.636719 30.644531 17.785156 30.628906 C 18.214844 30.589844 18.597656 30.433594 18.867188 30.179688 C 18.996094 30.054688 19.609375 29.320312 19.78125 29.074219 C 19.847656 28.984375 19.847656 28.988281 19.828125 29.253906 C 19.816406 29.4375 19.78125 29.582031 19.71875 29.714844 C 19.667969 29.820312 19.628906 29.914062 19.628906 29.925781 C 19.628906 29.933594 19.722656 29.90625 19.835938 29.855469 C 20.078125 29.746094 20.457031 29.382812 20.5625 29.15625 L 20.640625 29 L 20.542969 28.445312 C 20.4375 27.851562 20.441406 27.699219 20.546875 27.265625 C 20.578125 27.136719 20.625 27.03125 20.644531 27.03125 C 20.667969 27.03125 20.777344 27.097656 20.894531 27.175781 C 21.003906 27.257812 21.105469 27.324219 21.113281 27.324219 C 21.132812 27.324219 21.421875 26.734375 21.550781 26.433594 C 21.773438 25.90625 22.222656 24.660156 22.496094 23.808594 C 22.640625 23.355469 22.769531 22.984375 22.785156 22.984375 C 22.796875 22.984375 22.808594 23.136719 22.808594 23.316406 C 22.8125 24.449219 22.808594 24.398438 22.898438 24.445312 C 22.980469 24.492188 23.800781 24.582031 24.132812 24.585938 C 24.234375 24.585938 24.320312 24.601562 24.320312 24.625 C 24.320312 24.675781 24.132812 24.667969 23.589844 24.605469 C 23.179688 24.554688 22.929688 24.558594 22.742188 24.609375 C 22.617188 24.644531 22.449219 25.074219 21.777344 27.121094 C 21.054688 29.328125 20.777344 30.050781 20.300781 31.027344 C 19.828125 31.984375 19.234375 32.894531 18.871094 33.214844 C 18.742188 33.320312 18.726562 33.355469 18.769531 33.378906 C 18.796875 33.398438 18.84375 33.414062 18.871094 33.414062 C 19 33.414062 19.683594 33.71875 20.273438 34.027344 C 20.640625 34.226562 21.011719 34.410156 21.105469 34.453125 C 21.199219 34.488281 21.277344 34.535156 21.277344 34.558594 C 21.277344 34.578125 21.234375 34.703125 21.183594 34.832031 C 21.085938 35.074219 21.097656 35.125 21.242188 35.128906 C 21.277344 35.128906 21.371094 35.179688 21.453125 35.242188 C 21.589844 35.34375 21.601562 35.367188 21.578125 35.453125 C 21.5625 35.507812 21.542969 35.621094 21.53125 35.710938 C 21.507812 35.863281 21.476562 35.902344 21.335938 35.949219 C 21.28125 35.964844 21.273438 35.996094 21.292969 36.160156 C 21.320312 36.339844 21.320312 36.34375 21.238281 36.320312 C 21.078125 36.277344 20.578125 36.1875 20.46875 36.1875 C 20.210938 36.1875 19.976562 36.296875 19.78125 36.503906 L 19.59375 36.707031 L 19.171875 36.503906 C 17.496094 35.714844 15.097656 34.988281 12.941406 34.625 C 12.027344 34.464844 11.886719 34.449219 11.050781 34.347656 C 9.792969 34.191406 9.722656 34.183594 8.777344 34.089844 C 8.273438 34.039062 7.71875 33.984375 7.539062 33.964844 C 7.363281 33.941406 6.960938 33.902344 6.644531 33.867188 C 6.140625 33.820312 5.40625 33.722656 5.003906 33.648438 C 4.933594 33.632812 4.871094 33.636719 4.871094 33.65625 C 4.871094 33.675781 4.980469 33.796875 5.113281 33.929688 C 5.320312 34.132812 5.5 34.265625 5.9375 34.535156 C 6.035156 34.597656 6.042969 34.65625 5.945312 34.628906 C 5.714844 34.570312 6.148438 34.820312 6.429688 34.910156 C 6.722656 35.007812 7.324219 35.246094 7.359375 35.285156 C 7.40625 35.332031 7.023438 35.300781 6.117188 35.183594 C 6.042969 35.175781 5.980469 35.179688 5.980469 35.199219 C 5.980469 35.21875 6.050781 35.292969 6.132812 35.367188 C 6.300781 35.523438 6.703125 35.726562 7.007812 35.804688 C 7.117188 35.835938 7.21875 35.867188 7.226562 35.878906 C 7.238281 35.890625 7.074219 35.894531 6.867188 35.894531 C 6.484375 35.894531 6.484375 35.894531 6.484375 35.984375 C 6.484375 36.085938 6.5 36.109375 6.800781 36.351562 C 6.921875 36.453125 7.019531 36.554688 7.019531 36.574219 C 7.019531 36.625 6.765625 36.734375 6.070312 36.992188 C 5.179688 37.316406 5.152344 37.351562 5.675781 37.410156 C 5.796875 37.425781 6.085938 37.484375 6.320312 37.542969 C 6.558594 37.601562 6.78125 37.648438 6.816406 37.648438 C 6.921875 37.648438 6.878906 37.699219 6.519531 37.980469 C 6.332031 38.128906 6.117188 38.296875 6.039062 38.359375 C 5.820312 38.53125 5.238281 38.941406 4.972656 39.105469 C 4.824219 39.199219 4.527344 39.328125 4.214844 39.433594 C 3.824219 39.566406 3.632812 39.652344 3.433594 39.789062 C 3.289062 39.890625 3.082031 40.023438 2.972656 40.085938 C 2.78125 40.195312 2.59375 40.417969 2.691406 40.417969 C 2.871094 40.417969 6.398438 39.71875 7.195312 39.523438 C 9.210938 39.03125 10.664062 38.804688 12.054688 38.765625 C 12.714844 38.746094 12.695312 38.753906 11.710938 38.832031 C 11.347656 38.867188 10.863281 38.921875 10.636719 38.960938 C 10.414062 38.996094 10.148438 39.039062 10.046875 39.050781 C 9.714844 39.09375 9.117188 39.214844 8.453125 39.378906 C 8.085938 39.46875 7.363281 39.640625 6.839844 39.761719 C 6.320312 39.882812 5.722656 40.027344 5.515625 40.078125 C 4.550781 40.3125 3.429688 40.550781 2.8125 40.640625 C 2.277344 40.71875 1.769531 40.878906 2.183594 40.839844 C 2.871094 40.773438 4.125 40.636719 4.851562 40.542969 C 5.429688 40.472656 6.964844 40.210938 7.34375 40.125 C 7.640625 40.050781 7.933594 39.988281 9.277344 39.695312 C 10.847656 39.351562 12.558594 39.164062 14.167969 39.164062 C 16.371094 39.160156 18.117188 39.484375 19.988281 40.238281 C 20.902344 40.609375 21.933594 41.226562 22.480469 41.730469 C 22.675781 41.910156 22.5625 41.855469 22.242188 41.605469 C 21.519531 41.046875 20.148438 40.433594 18.894531 40.113281 C 17.660156 39.800781 16.289062 39.605469 14.8125 39.539062 C 13.984375 39.503906 13.71875 39.507812 12.964844 39.554688 C 11.660156 39.644531 11.050781 39.738281 8.21875 40.296875 C 7.699219 40.398438 7.308594 40.449219 7.171875 40.429688 C 7.039062 40.414062 6.148438 40.5 5.785156 40.566406 C 4.5625 40.785156 2.535156 41.039062 1.996094 41.039062 C 1.871094 41.039062 1.753906 41.0625 1.703125 41.09375 C 1.632812 41.140625 1.488281 41.152344 0.894531 41.152344 C 0.496094 41.152344 0.152344 41.164062 0.125 41.171875 C 0.101562 41.183594 0.0585938 41.242188 0.03125 41.300781 C -0.015625 41.421875 0.00390625 41.460938 0.324219 41.84375 C 0.496094 42.050781 0.925781 42.609375 1.410156 43.265625 C 1.726562 43.691406 1.910156 44.050781 1.96875 44.347656 C 1.996094 44.464844 2.003906 44.761719 2 45.050781 C 1.984375 45.597656 1.957031 45.683594 1.648438 46.148438 L 1.515625 46.347656 L 2.324219 46.324219 C 3.902344 46.269531 6.410156 46.140625 7.378906 46.054688 C 9.914062 45.835938 10.5625 45.777344 10.675781 45.765625 C 10.742188 45.753906 11.257812 45.707031 11.820312 45.65625 C 12.382812 45.605469 13.097656 45.53125 13.414062 45.492188 C 13.730469 45.445312 14.179688 45.390625 14.417969 45.363281 C 14.652344 45.335938 15.121094 45.277344 15.457031 45.238281 C 17.046875 45.046875 17.617188 45 18.699219 45 C 19.789062 45 20.085938 45.023438 20.710938 45.167969 C 20.882812 45.207031 21.039062 45.265625 21.066406 45.292969 C 21.089844 45.324219 21.121094 45.523438 21.136719 45.738281 C 21.226562 46.890625 21.589844 47.472656 22.40625 47.773438 C 22.90625 47.960938 23.199219 47.988281 24.570312 47.988281 C 25.761719 47.988281 25.867188 47.980469 26.214844 47.90625 C 27.132812 47.703125 27.667969 47.191406 27.832031 46.359375 C 27.871094 46.171875 27.910156 45.882812 27.925781 45.710938 C 27.960938 45.257812 27.964844 45.253906 28.25 45.183594 C 28.871094 45.042969 29.367188 45 30.445312 45 C 31.6875 45 31.890625 45.015625 34.707031 45.363281 C 36.730469 45.609375 36.953125 45.636719 37.144531 45.636719 C 37.25 45.636719 37.558594 45.660156 37.824219 45.691406 C 38.539062 45.773438 38.992188 45.816406 39.652344 45.875 C 39.976562 45.898438 40.421875 45.941406 40.636719 45.960938 C 42.15625 46.109375 43.476562 46.199219 45.363281 46.273438 C 46.902344 46.335938 47.53125 46.355469 47.53125 46.335938 C 47.53125 46.328125 47.457031 46.210938 47.367188 46.070312 C 47.128906 45.699219 47.082031 45.523438 47.085938 44.960938 C 47.085938 44.527344 47.09375 44.460938 47.195312 44.171875 C 47.253906 44.003906 47.363281 43.75 47.4375 43.621094 C 47.566406 43.382812 48.371094 42.269531 48.792969 41.742188 C 48.957031 41.539062 49 41.457031 49 41.359375 C 49 41.15625 48.953125 41.140625 48.457031 41.167969 C 48.109375 41.1875 47.984375 41.183594 47.863281 41.136719 C 47.777344 41.105469 47.519531 41.074219 47.238281 41.058594 C 46.335938 41.015625 45.1875 40.875 44.078125 40.675781 C 43.253906 40.527344 42.890625 40.480469 41.839844 40.402344 C 41.492188 40.375 41.007812 40.3125 40.761719 40.257812 C 40.515625 40.207031 40.089844 40.125 39.8125 40.074219 C 39.535156 40.023438 39.15625 39.945312 38.972656 39.910156 C 38.492188 39.8125 37.507812 39.664062 36.859375 39.589844 C 36.0625 39.503906 34.03125 39.503906 33.167969 39.589844 C 31.546875 39.757812 30.429688 39.984375 29.265625 40.378906 C 28.636719 40.59375 27.609375 41.074219 27.25 41.324219 C 26.773438 41.65625 26.519531 41.800781 26.746094 41.613281 C 27.238281 41.195312 28.359375 40.546875 29.109375 40.246094 C 30.386719 39.726562 31.941406 39.34375 33.3125 39.207031 C 34.066406 39.136719 36.234375 39.148438 36.929688 39.226562 C 38.390625 39.398438 39.570312 39.601562 40.851562 39.910156 C 42.121094 40.210938 43.773438 40.519531 44.503906 40.585938 C 44.644531 40.59375 44.957031 40.632812 45.203125 40.660156 C 46.714844 40.835938 47.253906 40.867188 47.175781 40.769531 C 47.152344 40.742188 47.015625 40.710938 46.804688 40.695312 C 46.21875 40.652344 45.210938 40.464844 44.164062 40.203125 C 43.601562 40.066406 42.878906 39.890625 42.550781 39.816406 C 42.226562 39.742188 41.515625 39.578125 40.976562 39.453125 C 39.167969 39.03125 38.113281 38.855469 36.910156 38.777344 C 36.445312 38.75 36.464844 38.75 37.164062 38.765625 C 38.375 38.785156 40 39.042969 42.085938 39.542969 C 42.425781 39.625 42.898438 39.730469 43.136719 39.78125 C 43.375 39.828125 43.886719 39.9375 44.273438 40.019531 C 45.679688 40.316406 46.816406 40.523438 46.816406 40.476562 C 46.816406 40.46875 46.609375 40.351562 46.359375 40.214844 C 46.105469 40.078125 45.765625 39.878906 45.597656 39.773438 C 45.382812 39.636719 45.175781 39.539062 44.878906 39.445312 C 44.425781 39.304688 44.207031 39.203125 43.914062 38.992188 C 43.339844 38.59375 42.210938 37.722656 42.214844 37.691406 C 42.21875 37.675781 42.273438 37.65625 42.339844 37.644531 C 42.410156 37.628906 42.609375 37.585938 42.789062 37.542969 C 42.96875 37.5 43.285156 37.441406 43.488281 37.410156 C 43.6875 37.378906 43.863281 37.34375 43.875 37.332031 C 43.910156 37.296875 43.789062 37.246094 43.324219 37.097656 C 42.875 36.953125 42.0625 36.640625 42.003906 36.589844 C 41.992188 36.574219 42.070312 36.503906 42.183594 36.433594 C 42.449219 36.265625 42.625 36.09375 42.625 36.003906 C 42.625 35.941406 42.597656 35.933594 42.421875 35.929688 C 42.171875 35.929688 41.90625 35.878906 41.980469 35.851562 C 42.007812 35.839844 42.167969 35.785156 42.335938 35.730469 C 42.636719 35.636719 42.941406 35.460938 43.070312 35.316406 C 43.109375 35.277344 43.128906 35.234375 43.117188 35.222656 C 43.109375 35.210938 42.816406 35.230469 42.472656 35.261719 C 41.878906 35.320312 41.675781 35.316406 41.75 35.242188 C 41.769531 35.226562 42.03125 35.125 42.335938 35.023438 C 42.941406 34.8125 43.042969 34.761719 43.0625 34.644531 C 43.070312 34.589844 43.136719 34.527344 43.273438 34.457031 C 43.640625 34.253906 44.199219 33.773438 44.199219 33.65625 C 44.199219 33.621094 44.066406 33.632812 43.863281 33.6875 C 43.65625 33.742188 43.027344 33.820312 42.265625 33.890625 C 42.019531 33.910156 41.675781 33.945312 41.496094 33.964844 C 41.320312 33.984375 40.753906 34.039062 40.242188 34.089844 C 39.398438 34.175781 38.496094 34.28125 37.402344 34.421875 C 36 34.601562 34.285156 34.964844 33.097656 35.339844 C 32.476562 35.527344 31.3125 35.933594 31.09375 36.03125 C 30.988281 36.078125 30.890625 36.109375 30.882812 36.097656 C 30.859375 36.074219 31.441406 33.65625 32.003906 31.445312 C 32.210938 30.632812 32.417969 29.804688 32.464844 29.605469 C 32.511719 29.402344 32.640625 28.878906 32.75 28.4375 C 32.859375 27.996094 33.03125 27.296875 33.132812 26.886719 C 33.234375 26.472656 33.355469 26.003906 33.40625 25.839844 C 33.488281 25.5625 33.503906 25.53125 33.625 25.464844 C 33.703125 25.425781 33.78125 25.375 33.800781 25.347656 C 33.863281 25.269531 34.136719 24.414062 34.136719 24.296875 C 34.136719 24.261719 34.160156 24.183594 34.191406 24.121094 C 34.230469 24.035156 34.238281 23.957031 34.222656 23.839844 C 34.195312 23.648438 34.136719 23.601562 33.925781 23.601562 C 33.839844 23.601562 33.777344 23.597656 33.777344 23.589844 C 33.777344 23.589844 33.796875 23.5 33.828125 23.402344 C 34.515625 20.839844 34.574219 20.691406 35.128906 20.097656 C 35.425781 19.777344 35.457031 19.726562 35.476562 19.566406 C 35.511719 19.320312 35.621094 18.992188 35.757812 18.734375 C 35.847656 18.566406 35.898438 18.507812 35.988281 18.476562 C 36.050781 18.457031 36.113281 18.425781 36.125 18.414062 C 36.15625 18.386719 35.773438 18.128906 35.695312 18.128906 C 35.628906 18.128906 35.578125 18.226562 35.410156 18.679688 C 35.339844 18.867188 35.269531 19.03125 35.261719 19.042969 C 35.210938 19.089844 35.390625 17.6875 35.476562 17.347656 C 35.546875 17.082031 35.605469 17.015625 36 16.746094 C 36.792969 16.195312 36.980469 15.707031 36.773438 14.726562 C 36.722656 14.488281 36.679688 14.246094 36.679688 14.1875 C 36.679688 14.042969 36.632812 14.050781 36.558594 14.207031 C 36.527344 14.277344 36.484375 14.335938 36.46875 14.335938 C 36.425781 14.335938 36.363281 14.105469 36.335938 13.839844 C 36.296875 13.496094 36.378906 13.035156 36.570312 12.441406 C 36.746094 11.914062 36.859375 11.394531 36.859375 11.125 C 36.859375 10.816406 36.746094 10.34375 36.605469 10.050781 C 36.464844 9.757812 36.273438 9.484375 36.234375 9.523438 C 36.222656 9.535156 36.25 9.640625 36.292969 9.761719 C 36.359375 9.953125 36.371094 10.050781 36.375 10.578125 C 36.375 11.167969 36.371094 11.1875 36.253906 11.535156 C 36.054688 12.125 35.738281 12.5625 35.128906 13.085938 C 34.816406 13.347656 34.746094 13.378906 34.746094 13.238281 C 34.746094 13.203125 34.730469 13.167969 34.710938 13.167969 C 34.664062 13.167969 34.453125 13.417969 34.316406 13.632812 C 34.253906 13.738281 34.179688 13.824219 34.148438 13.824219 C 34.101562 13.824219 34.078125 13.609375 34.097656 13.359375 C 34.121094 13.066406 33.871094 13.644531 33.792969 14.0625 C 33.710938 14.480469 33.710938 15.175781 33.789062 15.507812 C 33.820312 15.644531 33.910156 15.925781 33.992188 16.144531 C 34.171875 16.636719 34.296875 17.128906 34.355469 17.59375 C 34.40625 18.015625 34.367188 18.285156 34.21875 18.597656 L 34.121094 18.789062 L 34.253906 19.054688 C 34.40625 19.355469 34.417969 19.488281 34.316406 19.78125 C 34.210938 20.09375 34.09375 20.320312 33.761719 20.828125 C 33.308594 21.523438 33.308594 21.523438 33.273438 22.140625 C 33.234375 22.792969 33.1875 23.164062 33.117188 23.324219 C 33.074219 23.429688 33.042969 23.453125 32.882812 23.492188 C 32.652344 23.546875 32.578125 23.535156 32.140625 23.34375 C 31.148438 22.914062 30.683594 22.628906 30.316406 22.226562 C 29.796875 21.652344 29.613281 21.359375 29.101562 20.320312 C 28.929688 19.96875 28.765625 19.652344 28.734375 19.617188 C 28.695312 19.570312 28.625 19.554688 28.472656 19.554688 C 28.15625 19.554688 27.457031 19.449219 27.089844 19.351562 C 26.6875 19.242188 25.902344 18.914062 25.945312 18.875 C 25.949219 18.867188 26.136719 18.925781 26.355469 19.007812 C 27.101562 19.285156 27.855469 19.394531 28.707031 19.351562 C 28.984375 19.339844 29.222656 19.3125 29.246094 19.292969 C 29.265625 19.273438 29.1875 19.175781 29.035156 19.03125 C 28.691406 18.71875 28.523438 18.597656 28.050781 18.34375 L 27.640625 18.121094 L 27.886719 18.039062 C 28.023438 17.996094 28.199219 17.925781 28.277344 17.882812 C 28.464844 17.785156 28.726562 17.589844 28.726562 17.550781 C 28.726562 17.53125 28.601562 17.488281 28.449219 17.457031 C 28.101562 17.375 27.519531 17.398438 26.960938 17.511719 C 26.550781 17.597656 26.496094 17.59375 26.433594 17.472656 C 26.398438 17.40625 26.414062 17.390625 26.601562 17.300781 C 26.800781 17.207031 26.84375 17.199219 27.4375 17.1875 C 27.78125 17.1875 28.066406 17.167969 28.070312 17.152344 C 28.085938 17.117188 27.890625 16.996094 27.628906 16.867188 C 27.5 16.8125 27.402344 16.746094 27.402344 16.71875 C 27.402344 16.695312 27.457031 16.632812 27.527344 16.578125 C 27.660156 16.472656 27.933594 16.109375 28.097656 15.824219 C 28.160156 15.703125 28.222656 15.644531 28.289062 15.628906 C 28.445312 15.589844 29.917969 15.015625 30.390625 14.8125 C 31.519531 14.320312 32.414062 13.710938 32.734375 13.21875 C 32.792969 13.128906 32.855469 12.972656 32.878906 12.871094 C 32.984375 12.371094 32.628906 12.042969 31.789062 11.871094 C 31.480469 11.804688 30.511719 11.785156 29.5 11.820312 L 28.964844 11.835938 L 28.667969 11.390625 C 28.503906 11.140625 28.316406 10.8125 28.257812 10.660156 C 28.113281 10.285156 27.4375 8.949219 27.257812 8.683594 C 27.179688 8.566406 26.976562 8.304688 26.808594 8.109375 C 26.636719 7.914062 26.421875 7.644531 26.332031 7.519531 C 25.261719 6.019531 24.945312 5.769531 23.910156 5.617188 C 23.535156 5.566406 23.1875 5.578125 22.90625 5.65625 Z M 26.535156 10.769531 C 26.558594 10.792969 26.578125 10.878906 26.578125 10.957031 C 26.578125 11.042969 26.609375 11.320312 26.644531 11.582031 C 26.683594 11.839844 26.707031 12.066406 26.699219 12.078125 C 26.679688 12.109375 26.421875 12.15625 25.519531 12.292969 C 24.953125 12.382812 24.796875 12.394531 24.761719 12.359375 C 24.738281 12.332031 24.683594 12.066406 24.644531 11.773438 C 24.605469 11.476562 24.554688 11.191406 24.535156 11.144531 C 24.511719 11.074219 24.515625 11.046875 24.566406 11.019531 C 24.660156 10.96875 25.117188 10.882812 25.628906 10.820312 C 25.886719 10.789062 26.144531 10.757812 26.203125 10.75 C 26.417969 10.722656 26.492188 10.726562 26.535156 10.769531 Z M 27.71875 10.847656 C 27.679688 10.882812 26.644531 10.902344 26.667969 10.871094 C 26.679688 10.847656 26.898438 10.835938 27.210938 10.835938 C 27.5 10.835938 27.726562 10.84375 27.71875 10.847656 Z M 28.015625 13.953125 C 28.144531 14.34375 28.203125 14.582031 28.214844 14.785156 L 28.234375 15.070312 L 28.34375 14.96875 C 28.484375 14.832031 28.566406 14.632812 28.632812 14.261719 C 28.664062 14.097656 28.707031 13.945312 28.734375 13.929688 C 28.824219 13.875 28.867188 13.898438 28.890625 14.027344 C 28.972656 14.476562 28.617188 15.226562 28.222656 15.433594 C 28.121094 15.484375 28.058594 15.554688 27.988281 15.699219 C 27.671875 16.34375 27.054688 16.878906 26.28125 17.1875 C 25.730469 17.402344 25.261719 17.359375 24.585938 17.039062 C 23.996094 16.757812 23.625 16.445312 23.375 16.019531 C 23.09375 15.53125 23.050781 15.25 23.179688 14.773438 C 23.265625 14.445312 23.355469 14.304688 23.535156 14.199219 C 23.703125 14.097656 23.714844 14.144531 23.566406 14.320312 C 23.5 14.390625 23.457031 14.453125 23.464844 14.460938 C 23.484375 14.480469 24.570312 14.359375 25.101562 14.28125 C 25.496094 14.222656 25.992188 14.09375 26.34375 13.953125 C 26.773438 13.78125 26.796875 13.792969 26.59375 14.058594 C 26.527344 14.152344 26.46875 14.230469 26.46875 14.238281 C 26.46875 14.242188 26.6875 14.246094 26.953125 14.246094 C 27.21875 14.246094 27.4375 14.234375 27.4375 14.21875 C 27.4375 14.15625 27.257812 14.101562 27.007812 14.085938 L 26.738281 14.0625 L 26.988281 13.929688 C 27.128906 13.851562 27.355469 13.703125 27.492188 13.59375 C 27.628906 13.484375 27.761719 13.394531 27.792969 13.398438 C 27.820312 13.402344 27.910156 13.621094 28.015625 13.953125 Z M 35.566406 13.730469 C 35.566406 13.734375 35.488281 13.792969 35.390625 13.855469 C 35.203125 13.976562 35.027344 14.230469 34.957031 14.5 C 34.914062 14.65625 34.855469 15.183594 34.875 15.207031 C 34.882812 15.21875 34.960938 15.148438 35.046875 15.042969 C 35.234375 14.828125 35.296875 14.847656 35.238281 15.113281 C 35.195312 15.316406 35.21875 15.355469 35.394531 15.390625 C 35.523438 15.421875 35.53125 15.445312 35.480469 15.6875 L 35.453125 15.8125 L 35.546875 15.703125 C 35.671875 15.554688 35.773438 15.1875 35.800781 14.78125 C 35.8125 14.59375 35.835938 14.410156 35.851562 14.363281 C 35.886719 14.269531 35.890625 14.285156 36.039062 14.882812 C 36.15625 15.367188 36.085938 15.703125 35.804688 16.007812 C 35.664062 16.160156 35.554688 16.21875 35.289062 16.285156 C 35.058594 16.339844 34.960938 16.3125 34.960938 16.195312 C 34.960938 16.101562 34.882812 16.066406 34.84375 16.140625 C 34.792969 16.230469 34.757812 16.210938 34.640625 16.03125 C 34.40625 15.667969 34.332031 15.03125 34.476562 14.632812 C 34.617188 14.238281 34.992188 13.925781 35.5625 13.71875 C 35.5625 13.714844 35.566406 13.722656 35.566406 13.730469 Z M 23.800781 14.265625 C 23.789062 14.28125 23.761719 14.300781 23.746094 14.300781 C 23.722656 14.300781 23.71875 14.28125 23.730469 14.265625 C 23.742188 14.242188 23.769531 14.226562 23.789062 14.226562 C 23.808594 14.226562 23.8125 14.242188 23.800781 14.265625 Z M 22.316406 14.390625 C 22.339844 14.425781 22.414062 14.578125 22.476562 14.738281 C 22.539062 14.894531 22.691406 15.175781 22.8125 15.359375 C 23.140625 15.855469 23.09375 15.980469 22.699219 15.667969 C 22.457031 15.476562 22.269531 15.222656 22.191406 14.996094 C 22.136719 14.832031 22.113281 14.40625 22.160156 14.363281 C 22.199219 14.320312 22.269531 14.332031 22.316406 14.390625 Z M 28.90625 24.039062 C 29.191406 24.351562 29.59375 24.785156 29.800781 25.007812 C 30.007812 25.226562 30.46875 25.730469 30.820312 26.121094 C 31.878906 27.289062 32.105469 27.492188 32.039062 27.203125 C 31.988281 26.976562 31.957031 26.757812 31.976562 26.738281 C 32 26.710938 32.058594 26.828125 32.058594 26.910156 C 32.058594 27.09375 32.199219 27.257812 32.246094 27.128906 C 32.296875 27.007812 32.261719 27.546875 32.199219 27.863281 C 32.105469 28.351562 31.976562 28.738281 31.789062 29.109375 C 31.507812 29.660156 31.464844 29.855469 31.683594 29.550781 C 31.882812 29.273438 31.886719 29.347656 31.71875 30.144531 C 31.644531 30.46875 31.496094 31.109375 31.378906 31.574219 C 31.261719 32.03125 31.066406 32.855469 30.949219 33.398438 C 30.597656 34.976562 30.5625 35.121094 30.449219 35.621094 C 30.261719 36.421875 30.3125 36.335938 29.953125 36.507812 C 29.777344 36.59375 29.617188 36.664062 29.605469 36.664062 C 29.585938 36.664062 29.5 36.582031 29.410156 36.484375 C 29.285156 36.34375 29.199219 36.289062 29.050781 36.246094 C 28.804688 36.171875 28.457031 36.171875 28.261719 36.242188 C 28.011719 36.335938 27.976562 36.324219 27.984375 36.136719 C 27.992188 36.015625 27.972656 35.949219 27.917969 35.890625 C 27.808594 35.769531 27.800781 35.695312 27.84375 35.273438 L 27.886719 34.894531 L 28.113281 34.847656 C 28.40625 34.789062 28.445312 34.753906 28.417969 34.585938 L 28.398438 34.457031 L 28.96875 34.1875 C 29.773438 33.820312 30.257812 33.628906 30.4375 33.605469 C 30.519531 33.597656 30.601562 33.578125 30.605469 33.5625 C 30.617188 33.546875 30.535156 33.339844 30.429688 33.105469 C 30.023438 32.230469 29.351562 29.929688 28.964844 28.089844 C 28.914062 27.859375 28.824219 27.433594 28.761719 27.140625 C 28.703125 26.847656 28.59375 26.347656 28.53125 26.015625 C 28.402344 25.417969 28.230469 24.820312 28.132812 24.667969 C 28.0625 24.5625 27.867188 24.5625 27.238281 24.660156 C 26.660156 24.75 26.554688 24.75 26.523438 24.667969 C 26.511719 24.636719 26.492188 24.398438 26.480469 24.140625 L 26.460938 23.679688 L 26.550781 23.65625 C 26.597656 23.644531 26.691406 23.640625 26.761719 23.644531 L 26.882812 23.65625 L 26.910156 24.113281 C 26.925781 24.363281 26.945312 24.589844 26.953125 24.613281 C 26.972656 24.664062 26.980469 24.660156 27.507812 24.566406 C 27.902344 24.492188 28.027344 24.40625 27.984375 24.234375 C 27.972656 24.175781 27.96875 24.046875 27.972656 23.949219 C 27.976562 23.847656 27.980469 23.597656 27.984375 23.390625 L 27.992188 23.019531 L 28.1875 23.246094 C 28.296875 23.371094 28.621094 23.730469 28.90625 24.039062 Z M 26.324219 23.542969 C 26.375 23.609375 26.398438 24.722656 26.347656 24.804688 C 26.320312 24.847656 26.160156 24.851562 25.410156 24.832031 C 24.910156 24.820312 24.484375 24.804688 24.464844 24.789062 C 24.410156 24.753906 24.457031 23.558594 24.511719 23.523438 C 24.53125 23.511719 24.9375 23.496094 25.414062 23.496094 C 26.136719 23.492188 26.289062 23.5 26.324219 23.542969 Z M 33.4375 23.714844 C 33.664062 23.832031 33.761719 23.863281 33.914062 23.863281 C 34.085938 23.863281 34.097656 23.867188 34.097656 23.949219 C 34.097656 24.050781 34.035156 24.125 33.894531 24.175781 C 33.644531 24.273438 33.644531 24.273438 33.8125 24.292969 C 33.929688 24.308594 33.976562 24.332031 33.984375 24.378906 C 34.019531 24.566406 33.898438 24.714844 33.660156 24.769531 C 33.550781 24.796875 33.554688 24.800781 33.714844 24.804688 C 33.808594 24.804688 33.882812 24.820312 33.882812 24.835938 C 33.882812 24.855469 33.84375 24.90625 33.796875 24.953125 C 33.726562 25.019531 33.714844 25.050781 33.746094 25.101562 C 33.832031 25.265625 33.601562 25.386719 33.34375 25.316406 C 33.164062 25.265625 33.109375 25.183594 33.125 24.96875 C 33.136719 24.835938 33.15625 24.792969 33.222656 24.761719 C 33.289062 24.730469 33.300781 24.707031 33.277344 24.625 C 33.234375 24.472656 33.273438 24.332031 33.367188 24.289062 C 33.414062 24.265625 33.453125 24.238281 33.453125 24.222656 C 33.453125 24.195312 33.429688 24.183594 33.03125 24.046875 C 32.777344 23.960938 32.808594 23.945312 32.59375 24.25 C 32.460938 24.4375 32.328125 24.46875 32.378906 24.300781 C 32.394531 24.242188 32.453125 24.089844 32.507812 23.96875 C 32.707031 23.519531 32.9375 23.457031 33.4375 23.714844 Z M 20.820312 26.386719 C 20.855469 26.410156 20.90625 26.535156 20.941406 26.667969 C 20.96875 26.796875 21.027344 26.949219 21.066406 27.003906 C 21.199219 27.199219 21.007812 27.089844 20.730469 26.816406 C 20.554688 26.648438 20.523438 26.550781 20.597656 26.40625 C 20.640625 26.328125 20.730469 26.316406 20.820312 26.386719 Z M 19.785156 26.710938 C 19.753906 26.765625 19.605469 26.941406 19.378906 27.179688 C 19.238281 27.328125 19.191406 27.355469 19.03125 27.378906 C 18.839844 27.402344 18.660156 27.382812 18.542969 27.316406 C 18.480469 27.285156 18.480469 27.277344 18.539062 27.210938 C 18.570312 27.175781 18.628906 27.140625 18.664062 27.140625 C 18.699219 27.140625 18.929688 27.035156 19.171875 26.902344 C 19.582031 26.683594 19.851562 26.601562 19.785156 26.710938 Z M 25.195312 29.082031 C 25.210938 29.652344 25.230469 31.300781 25.246094 32.75 C 25.257812 34.195312 25.285156 35.394531 25.296875 35.40625 C 25.332031 35.441406 25.367188 35.421875 25.839844 35.117188 C 26.097656 34.953125 26.167969 34.917969 26.203125 34.957031 C 26.289062 35.046875 26.511719 36.214844 26.574219 36.890625 C 26.613281 37.296875 26.636719 37.375 26.78125 37.550781 L 26.867188 37.660156 L 26.761719 37.769531 C 26.542969 38.003906 25.988281 38.742188 25.699219 39.179688 C 25.414062 39.617188 25.03125 40.320312 24.890625 40.671875 L 24.824219 40.839844 L 24.90625 40.734375 C 25.050781 40.53125 25.71875 39.808594 25.960938 39.578125 C 28.769531 36.945312 33.425781 35.839844 37.828125 36.757812 C 39.015625 37.003906 40.140625 37.394531 41.550781 38.046875 C 41.773438 38.15625 42.171875 38.332031 42.425781 38.449219 C 43.414062 38.886719 43.660156 39.015625 43.625 39.050781 C 43.574219 39.101562 42.949219 39.09375 42.625 39.039062 C 42.367188 38.992188 41.785156 38.871094 40.136719 38.503906 C 38.148438 38.070312 36.667969 37.902344 34.804688 37.902344 C 32.867188 37.902344 31.175781 38.15625 29.835938 38.640625 C 28.3125 39.191406 27.101562 39.960938 26 41.078125 C 25.480469 41.601562 25.117188 42.074219 24.773438 42.652344 C 24.679688 42.808594 24.589844 42.945312 24.570312 42.957031 C 24.554688 42.964844 24.449219 42.832031 24.339844 42.660156 C 23.039062 40.632812 21.101562 39.175781 18.769531 38.484375 C 17.925781 38.234375 17.222656 38.101562 16.117188 37.988281 C 15.289062 37.898438 13.175781 37.902344 12.230469 37.992188 C 11.464844 38.0625 10.078125 38.289062 8.902344 38.542969 C 8.46875 38.632812 7.777344 38.777344 7.359375 38.867188 C 6.359375 39.082031 5.976562 39.125 5.691406 39.074219 C 5.40625 39.023438 5.363281 38.984375 5.542969 38.925781 C 5.785156 38.84375 6.699219 38.449219 7.433594 38.113281 C 9.582031 37.121094 10.726562 36.773438 12.535156 36.550781 C 13.089844 36.480469 13.386719 36.464844 14.328125 36.464844 C 15.464844 36.460938 15.707031 36.480469 16.714844 36.625 C 17.769531 36.777344 19.164062 37.175781 20.113281 37.59375 C 21.527344 38.210938 22.988281 39.3125 23.875 40.417969 C 24.304688 40.957031 24.308594 40.949219 23.992188 40.308594 C 23.496094 39.316406 23.050781 38.628906 22.46875 37.953125 C 22.363281 37.828125 22.277344 37.714844 22.277344 37.699219 C 22.277344 37.679688 22.316406 37.648438 22.359375 37.628906 C 22.496094 37.5625 22.566406 37.414062 22.636719 37.027344 C 22.785156 36.222656 23.082031 35.039062 23.15625 34.957031 C 23.1875 34.917969 23.214844 34.921875 23.285156 34.976562 C 23.402344 35.066406 24.101562 35.496094 24.132812 35.496094 C 24.148438 35.496094 24.179688 35.300781 24.207031 35.066406 C 24.308594 34.050781 24.867188 29.859375 25.054688 28.65625 C 25.082031 28.472656 25.109375 28.265625 25.109375 28.1875 C 25.109375 28.113281 25.125 28.054688 25.140625 28.054688 C 25.160156 28.054688 25.183594 28.515625 25.195312 29.082031 Z M 19.230469 28.601562 C 19.023438 28.976562 18.585938 29.355469 18.089844 29.597656 C 17.570312 29.84375 16.550781 30.03125 16.390625 29.90625 C 16.328125 29.855469 16.34375 29.839844 16.625 29.6875 C 16.789062 29.597656 16.992188 29.507812 17.074219 29.492188 C 17.160156 29.484375 17.4375 29.402344 17.6875 29.320312 C 18.199219 29.152344 18.238281 29.171875 17.867188 29.425781 C 17.566406 29.621094 17.6875 29.625 18.101562 29.425781 C 18.476562 29.246094 18.878906 28.9375 19.128906 28.636719 C 19.210938 28.539062 19.285156 28.453125 19.296875 28.453125 C 19.300781 28.453125 19.273438 28.519531 19.230469 28.601562 Z M 15.636719 38.089844 C 17.117188 38.195312 18.253906 38.4375 19.433594 38.90625 C 20.578125 39.359375 21.914062 40.183594 22.613281 40.867188 L 22.90625 41.152344 L 22.546875 40.863281 C 21.679688 40.160156 20.421875 39.480469 19.234375 39.070312 C 17.570312 38.496094 15.769531 38.171875 13.996094 38.132812 C 13.507812 38.121094 13.117188 38.101562 13.132812 38.089844 C 13.199219 38.015625 14.648438 38.015625 15.636719 38.089844 Z M 36.210938 38.082031 C 36.339844 38.101562 36.109375 38.113281 35.527344 38.117188 C 34.519531 38.121094 33.972656 38.160156 33.125 38.285156 C 30.34375 38.699219 28.242188 39.527344 26.546875 40.871094 C 26.007812 41.300781 26.003906 41.300781 26.003906 41.28125 C 26.003906 41.230469 26.777344 40.570312 27.199219 40.261719 C 29.390625 38.671875 31.902344 37.964844 35.136719 38.039062 C 35.621094 38.046875 36.105469 38.066406 36.210938 38.082031 Z M 15.597656 39.761719 C 17.121094 39.859375 18.703125 40.144531 19.808594 40.523438 C 20.980469 40.925781 22.1875 41.621094 22.90625 42.300781 C 23.152344 42.535156 23.109375 42.523438 22.796875 42.28125 C 21.417969 41.183594 19.609375 40.429688 17.476562 40.078125 C 16.148438 39.855469 15.066406 39.785156 13.414062 39.808594 C 12.089844 39.828125 11.9375 39.816406 12.875 39.765625 C 13.71875 39.722656 14.902344 39.722656 15.597656 39.761719 Z M 36.375 39.765625 C 36.789062 39.789062 37.183594 39.820312 37.25 39.835938 C 37.324219 39.855469 37.226562 39.859375 37.019531 39.84375 C 36.257812 39.792969 33.648438 39.816406 32.953125 39.882812 C 31.695312 40 30.601562 40.226562 29.53125 40.585938 C 28.148438 41.046875 27.601562 41.335938 26.246094 42.316406 C 26.003906 42.492188 26.007812 42.441406 26.246094 42.238281 C 26.851562 41.738281 28.09375 40.96875 28.71875 40.707031 C 29.699219 40.308594 30.652344 40.074219 32.113281 39.875 C 33.15625 39.734375 34.917969 39.691406 36.375 39.765625 Z M 8.441406 40.480469 C 8.429688 40.492188 8.058594 40.625 7.617188 40.769531 C 7.183594 40.917969 6.617188 41.109375 6.359375 41.203125 C 5.597656 41.480469 4.320312 41.839844 4.273438 41.792969 C 4.265625 41.785156 4.34375 41.757812 4.449219 41.734375 C 4.875 41.632812 5.886719 41.324219 6.320312 41.167969 C 6.578125 41.078125 6.992188 40.925781 7.246094 40.839844 C 7.496094 40.75 7.71875 40.667969 7.738281 40.65625 C 7.765625 40.640625 8.390625 40.46875 8.449219 40.457031 C 8.457031 40.457031 8.453125 40.46875 8.441406 40.480469 Z M 41.996094 40.53125 C 42.136719 40.550781 42.460938 40.605469 42.714844 40.652344 C 43.992188 40.894531 45.382812 41.070312 46.636719 41.148438 C 47.5 41.203125 48.140625 41.253906 48.292969 41.28125 C 48.515625 41.316406 48.40625 41.367188 48.105469 41.367188 C 47.726562 41.367188 46.09375 41.269531 45.667969 41.21875 C 44.066406 41.035156 42.058594 40.6875 41.667969 40.527344 C 41.515625 40.460938 41.511719 40.457031 41.621094 40.476562 C 41.6875 40.484375 41.863281 40.511719 41.996094 40.53125 Z M 7.214844 40.566406 C 7.15625 40.625 5.972656 40.878906 5.371094 40.964844 C 5.066406 41.007812 4.722656 41.058594 4.601562 41.078125 C 4.292969 41.125 2.980469 41.246094 2.078125 41.3125 C 1.105469 41.382812 0.738281 41.386719 0.683594 41.316406 C 0.652344 41.277344 0.703125 41.265625 0.960938 41.246094 C 2.949219 41.105469 3.4375 41.066406 3.992188 41.003906 C 4.347656 40.960938 4.800781 40.902344 4.996094 40.871094 C 5.195312 40.84375 5.46875 40.804688 5.605469 40.785156 C 5.890625 40.75 6.621094 40.617188 6.804688 40.570312 C 6.984375 40.523438 7.257812 40.523438 7.214844 40.566406 Z M 40.894531 40.550781 C 40.882812 40.5625 40.851562 40.566406 40.824219 40.554688 C 40.796875 40.542969 40.808594 40.53125 40.847656 40.53125 C 40.886719 40.53125 40.910156 40.539062 40.894531 40.550781 Z M 41.527344 40.75 C 41.730469 40.824219 42.132812 40.964844 42.425781 41.058594 C 42.722656 41.148438 43.191406 41.300781 43.464844 41.386719 C 43.742188 41.472656 44.148438 41.601562 44.371094 41.667969 C 44.59375 41.734375 44.761719 41.792969 44.746094 41.800781 C 44.679688 41.820312 43.277344 41.398438 42.285156 41.058594 C 41.511719 40.792969 40.894531 40.558594 41.042969 40.585938 C 41.113281 40.601562 41.332031 40.671875 41.527344 40.75 Z M 16.980469 41 C 17.980469 41.132812 19.160156 41.425781 19.921875 41.738281 C 20.332031 41.902344 21.027344 42.25 21.371094 42.464844 C 21.765625 42.710938 22.5 43.339844 22.394531 43.339844 C 22.371094 43.339844 22.347656 43.324219 22.332031 43.300781 C 22.292969 43.234375 21.648438 42.761719 21.417969 42.632812 C 20.773438 42.273438 19.800781 41.886719 18.964844 41.660156 C 17.449219 41.246094 15.054688 41.179688 12.789062 41.476562 C 10.882812 41.730469 9.117188 42.242188 5.929688 43.484375 C 5.457031 43.667969 4.875 43.882812 4.636719 43.960938 C 4.027344 44.167969 3.105469 44.363281 2.347656 44.449219 C 1.960938 44.496094 2.164062 44.433594 2.695312 44.339844 C 4.074219 44.109375 4.984375 43.824219 6.574219 43.125 C 7.921875 42.535156 9.609375 41.894531 10.527344 41.628906 C 11.847656 41.242188 13.011719 41.03125 14.523438 40.917969 C 14.980469 40.878906 16.445312 40.929688 16.980469 41 Z M 35.550781 41 C 36.605469 41.136719 38 41.433594 38.828125 41.703125 C 39.824219 42.027344 41.183594 42.554688 42.84375 43.257812 C 44.066406 43.78125 44.960938 44.058594 46.046875 44.261719 C 46.320312 44.3125 46.628906 44.371094 46.726562 44.390625 C 47.039062 44.449219 46.714844 44.441406 46.304688 44.378906 C 45.421875 44.242188 44.480469 43.992188 43.628906 43.660156 C 41.699219 42.914062 40.785156 42.578125 40.117188 42.375 C 39.871094 42.296875 39.539062 42.195312 39.382812 42.144531 C 38.140625 41.746094 36.351562 41.433594 34.738281 41.328125 C 33.898438 41.273438 32.113281 41.304688 31.574219 41.382812 C 30.144531 41.589844 29.191406 41.863281 28.207031 42.351562 C 27.71875 42.589844 27.023438 43.03125 26.886719 43.1875 C 26.8125 43.269531 26.757812 43.289062 26.757812 43.234375 C 26.757812 43.183594 27.332031 42.726562 27.652344 42.515625 C 28.964844 41.664062 30.835938 41.074219 32.683594 40.929688 C 33.363281 40.878906 34.867188 40.917969 35.550781 41 Z M 3.902344 41.410156 C 3.816406 41.421875 3.632812 41.433594 3.492188 41.433594 L 3.242188 41.429688 L 3.4375 41.40625 C 3.546875 41.390625 3.730469 41.378906 3.851562 41.378906 L 4.066406 41.378906 Z M 44.820312 41.394531 C 44.792969 41.402344 44.746094 41.402344 44.710938 41.394531 C 44.675781 41.382812 44.699219 41.375 44.753906 41.375 C 44.816406 41.375 44.839844 41.382812 44.820312 41.394531 Z M 45.464844 41.429688 C 45.441406 41.4375 45.398438 41.4375 45.375 41.429688 C 45.351562 41.417969 45.367188 41.414062 45.417969 41.414062 C 45.46875 41.414062 45.484375 41.417969 45.464844 41.429688 Z M 3.144531 41.46875 C 3.085938 41.472656 3 41.472656 2.949219 41.46875 C 2.890625 41.460938 2.9375 41.453125 3.042969 41.453125 C 3.152344 41.453125 3.199219 41.460938 3.144531 41.46875 Z M 45.804688 41.46875 C 45.769531 41.472656 45.703125 41.472656 45.660156 41.46875 C 45.613281 41.460938 45.644531 41.453125 45.722656 41.453125 C 45.800781 41.449219 45.835938 41.457031 45.804688 41.46875 Z M 2.507812 41.535156 C 2.320312 41.5625 1.902344 41.589844 1.574219 41.601562 L 0.984375 41.621094 L 1.46875 41.585938 C 1.734375 41.570312 2.074219 41.539062 2.222656 41.523438 C 2.367188 41.503906 2.570312 41.488281 2.667969 41.488281 C 2.804688 41.488281 2.765625 41.5 2.507812 41.535156 Z M 47.136719 41.550781 C 47.542969 41.578125 47.902344 41.609375 47.941406 41.625 C 47.988281 41.640625 47.871094 41.648438 47.675781 41.636719 C 47.160156 41.613281 46.011719 41.507812 45.992188 41.488281 C 45.980469 41.476562 46.070312 41.476562 46.1875 41.488281 C 46.304688 41.5 46.734375 41.527344 47.136719 41.550781 Z M 4.25 41.589844 C 3.773438 41.746094 2.335938 41.957031 1.78125 41.949219 L 1.449219 41.941406 L 1.789062 41.910156 C 2.367188 41.863281 3.800781 41.664062 4.082031 41.589844 C 4.425781 41.503906 4.515625 41.503906 4.25 41.589844 Z M 45.476562 41.679688 C 45.699219 41.722656 46.703125 41.851562 47.441406 41.929688 C 47.519531 41.9375 47.390625 41.941406 47.15625 41.933594 C 46.917969 41.925781 46.53125 41.894531 46.296875 41.859375 C 45.851562 41.800781 45.089844 41.664062 45.0625 41.636719 C 45.03125 41.609375 45.207031 41.625 45.476562 41.679688 Z M 17.605469 41.859375 C 18.410156 41.964844 18.902344 42.09375 19.609375 42.382812 C 19.949219 42.515625 20.046875 42.570312 20.390625 42.789062 C 20.628906 42.9375 20.53125 42.90625 20.230469 42.738281 C 19.714844 42.457031 18.855469 42.144531 18.265625 42.027344 C 17.40625 41.855469 16.1875 41.816406 15.292969 41.929688 C 13.9375 42.097656 11.285156 42.695312 9.132812 43.320312 C 8.691406 43.449219 8.140625 43.605469 7.914062 43.664062 C 7.691406 43.726562 7.210938 43.855469 6.851562 43.949219 C 6.492188 44.050781 6.195312 44.117188 6.195312 44.105469 C 6.195312 44.089844 6.304688 44.050781 6.441406 44.011719 C 6.574219 43.976562 6.90625 43.867188 7.179688 43.773438 C 7.640625 43.609375 9.082031 43.136719 9.457031 43.027344 C 9.546875 43.003906 9.777344 42.929688 9.976562 42.871094 C 11.449219 42.414062 13.984375 41.902344 15.222656 41.808594 C 15.820312 41.761719 17.070312 41.792969 17.605469 41.859375 Z M 34.441406 41.875 C 35.835938 42.0625 37.597656 42.417969 38.683594 42.730469 C 39.605469 42.996094 40.484375 43.269531 41.28125 43.539062 C 41.773438 43.703125 42.367188 43.902344 42.597656 43.976562 C 43.421875 44.242188 42.941406 44.144531 41.710938 43.792969 C 38.835938 42.976562 36.863281 42.472656 35.621094 42.242188 C 35.40625 42.199219 35.074219 42.132812 34.886719 42.097656 C 33.644531 41.851562 32.320312 41.792969 31.351562 41.945312 C 30.742188 42.042969 29.917969 42.246094 29.5625 42.394531 C 29.417969 42.453125 29.121094 42.589844 28.898438 42.699219 C 28.675781 42.8125 28.53125 42.871094 28.582031 42.832031 C 28.769531 42.679688 29.613281 42.285156 29.980469 42.179688 C 30.566406 42.007812 31.445312 41.84375 32.039062 41.792969 C 32.480469 41.753906 33.921875 41.804688 34.441406 41.875 Z M 45.042969 41.855469 C 45.140625 41.886719 45.1875 41.910156 45.148438 41.910156 C 45.074219 41.910156 44.765625 41.816406 44.828125 41.808594 C 44.847656 41.808594 44.945312 41.832031 45.042969 41.855469 Z M 18.089844 42.421875 C 18.890625 42.535156 19.34375 42.644531 20.078125 42.894531 C 20.789062 43.136719 21.300781 43.40625 21.734375 43.769531 C 21.949219 43.949219 21.890625 43.960938 21.664062 43.785156 C 21.421875 43.605469 20.859375 43.273438 20.578125 43.144531 C 20.109375 42.9375 19.234375 42.691406 18.394531 42.535156 C 18.019531 42.464844 16.996094 42.390625 16.347656 42.382812 C 15.792969 42.378906 15.722656 42.371094 15.976562 42.351562 C 16.5 42.304688 17.53125 42.34375 18.089844 42.421875 Z M 33.148438 42.351562 C 33.402344 42.367188 33.242188 42.378906 32.453125 42.398438 C 31.378906 42.421875 30.917969 42.472656 30.015625 42.667969 C 29.414062 42.796875 29.183594 42.871094 28.636719 43.113281 C 28.144531 43.328125 27.960938 43.429688 27.582031 43.703125 C 27.277344 43.921875 27.257812 43.933594 27.257812 43.890625 C 27.257812 43.859375 27.84375 43.410156 28.082031 43.257812 C 28.132812 43.230469 28.285156 43.160156 28.421875 43.109375 C 28.5625 43.058594 28.828125 42.957031 29.011719 42.882812 C 29.519531 42.683594 30.710938 42.425781 31.484375 42.355469 C 31.859375 42.320312 32.71875 42.316406 33.148438 42.351562 Z M 17.75 43.117188 C 18.894531 43.277344 19.886719 43.617188 20.875 44.1875 C 21.078125 44.308594 21.238281 44.414062 21.226562 44.421875 C 21.214844 44.433594 21.054688 44.355469 20.867188 44.253906 C 19.691406 43.609375 18.011719 43.230469 16.339844 43.230469 C 14.4375 43.230469 12.511719 43.527344 9.582031 44.273438 C 7.964844 44.683594 6.789062 44.949219 5.425781 45.21875 C 5.054688 45.289062 4.625 45.371094 4.476562 45.398438 C 4.015625 45.492188 3.40625 45.59375 2.882812 45.671875 C 2.144531 45.78125 2.152344 45.777344 2.132812 45.75 C 2.125 45.730469 2.214844 45.707031 2.339844 45.695312 C 2.65625 45.660156 4.152344 45.394531 4.765625 45.273438 C 5.589844 45.101562 6.363281 44.914062 8.5625 44.347656 C 12.316406 43.382812 13.316406 43.1875 15.382812 43.03125 C 15.851562 42.996094 17.230469 43.046875 17.75 43.117188 Z M 34.960938 43.132812 C 36.605469 43.351562 38.503906 43.769531 41.300781 44.523438 C 41.996094 44.710938 43.359375 45.035156 44.148438 45.203125 C 45.113281 45.40625 45.339844 45.449219 46.753906 45.691406 C 46.949219 45.726562 47.097656 45.765625 47.085938 45.773438 C 47.054688 45.808594 45.996094 45.640625 44.96875 45.441406 C 44.714844 45.386719 44.238281 45.296875 43.914062 45.234375 C 42.675781 44.996094 41.863281 44.824219 41.085938 44.632812 C 37.023438 43.640625 36.375 43.507812 34.636719 43.3125 C 33.953125 43.238281 32.285156 43.210938 31.691406 43.261719 C 30.394531 43.382812 29.136719 43.738281 28.152344 44.273438 C 27.914062 44.402344 27.867188 44.417969 27.929688 44.347656 C 28.015625 44.257812 28.863281 43.796875 29.191406 43.667969 C 29.953125 43.363281 30.910156 43.132812 31.808594 43.050781 C 31.992188 43.03125 32.625 43.019531 33.203125 43.027344 C 34.085938 43.039062 34.378906 43.054688 34.960938 43.132812 Z M 20.183594 43.464844 C 20.335938 43.535156 20.597656 43.675781 20.769531 43.785156 C 20.941406 43.890625 21.121094 44.003906 21.171875 44.03125 C 21.289062 44.097656 21.492188 44.273438 21.492188 44.304688 C 21.492188 44.320312 21.414062 44.277344 21.324219 44.207031 C 21.054688 44.007812 20.382812 43.613281 20.09375 43.46875 C 19.949219 43.398438 19.84375 43.339844 19.867188 43.339844 C 19.894531 43.339844 20.035156 43.398438 20.183594 43.464844 Z M 28.960938 43.480469 C 28.492188 43.738281 27.957031 44.074219 27.804688 44.199219 C 27.628906 44.34375 27.566406 44.363281 27.6875 44.230469 C 27.851562 44.054688 29.027344 43.339844 29.15625 43.339844 C 29.183594 43.339844 29.097656 43.402344 28.960938 43.480469 Z M 25.253906 43.453125 C 25.957031 43.5625 26.5625 43.902344 27.15625 44.539062 C 27.488281 44.886719 27.742188 45.226562 27.703125 45.269531 C 27.691406 45.277344 27.589844 45.1875 27.480469 45.0625 C 27.367188 44.941406 27.121094 44.71875 26.9375 44.570312 C 25.90625 43.765625 24.773438 43.507812 23.585938 43.8125 C 23.230469 43.898438 22.449219 44.292969 22.128906 44.542969 C 22 44.640625 21.769531 44.855469 21.621094 45.019531 C 21.46875 45.179688 21.347656 45.292969 21.347656 45.273438 C 21.347656 45.199219 21.664062 44.773438 21.914062 44.503906 C 22.460938 43.90625 23.203125 43.515625 23.980469 43.414062 C 24.257812 43.375 24.890625 43.394531 25.253906 43.453125 Z M 44.308594 44.714844 C 44.535156 44.761719 44.953125 44.851562 45.238281 44.910156 C 45.527344 44.96875 45.824219 45.035156 45.902344 45.054688 C 45.980469 45.074219 46.195312 45.113281 46.382812 45.140625 C 46.5625 45.167969 46.734375 45.214844 46.757812 45.234375 C 46.785156 45.269531 46.777344 45.273438 46.726562 45.261719 C 46.6875 45.25 46.574219 45.226562 46.476562 45.21875 C 45.941406 45.148438 43.972656 44.71875 43.789062 44.628906 L 43.679688 44.578125 L 43.789062 44.601562 C 43.847656 44.613281 44.082031 44.664062 44.308594 44.714844 Z M 5.300781 44.65625 C 5.179688 44.707031 4.3125 44.910156 3.546875 45.066406 C 2.972656 45.183594 2.285156 45.273438 2.328125 45.222656 C 2.339844 45.214844 2.523438 45.179688 2.734375 45.148438 C 3.089844 45.09375 4.230469 44.855469 4.925781 44.691406 C 5.082031 44.65625 5.25 44.621094 5.300781 44.621094 L 5.390625 44.617188 Z M 5.300781 44.65625 "/>
<path style=" stroke:none;fill-rule:nonzero;fill:rgb(0%,0%,0%);fill-opacity:1;" d="M 25.433594 11.125 C 25.1875 11.167969 24.976562 11.21875 24.960938 11.242188 C 24.949219 11.265625 24.941406 11.332031 24.953125 11.382812 C 24.957031 11.433594 24.980469 11.609375 24.996094 11.777344 C 25.015625 11.945312 25.039062 12.085938 25.042969 12.09375 C 25.050781 12.101562 25.273438 12.074219 25.539062 12.039062 C 26.371094 11.914062 26.34375 11.921875 26.355469 11.824219 C 26.375 11.679688 26.332031 11.578125 26.230469 11.53125 L 26.128906 11.484375 L 26.210938 11.414062 C 26.277344 11.363281 26.292969 11.320312 26.285156 11.210938 L 26.273438 11.070312 L 26.074219 11.0625 C 25.96875 11.0625 25.679688 11.089844 25.433594 11.125 Z M 25.433594 11.125 "/>
<path style=" stroke:none;fill-rule:nonzero;fill:rgb(0%,0%,0%);fill-opacity:1;" d="M 26.800781 14.601562 C 26.695312 14.714844 26.695312 14.882812 26.804688 14.984375 C 26.953125 15.132812 27.105469 15.066406 27.191406 14.816406 C 27.277344 14.5625 26.980469 14.402344 26.800781 14.601562 Z M 26.800781 14.601562 "/>
<path style=" stroke:none;fill-rule:nonzero;fill:rgb(0%,0%,0%);fill-opacity:1;" d="M 24.019531 14.707031 C 23.9375 14.824219 23.949219 14.945312 24.050781 15.046875 C 24.136719 15.140625 24.261719 15.164062 24.34375 15.109375 C 24.398438 15.070312 24.464844 14.933594 24.464844 14.851562 C 24.464844 14.648438 24.132812 14.542969 24.019531 14.707031 Z M 24.019531 14.707031 "/>
<path style=" stroke:none;fill-rule:nonzero;fill:rgb(0%,0%,0%);fill-opacity:1;" d="M 25.582031 15.527344 C 25.59375 15.59375 25.703125 15.675781 25.734375 15.644531 C 25.75 15.632812 25.742188 15.585938 25.71875 15.542969 C 25.671875 15.453125 25.5625 15.441406 25.582031 15.527344 Z M 25.582031 15.527344 "/>
<path style=" stroke:none;fill-rule:nonzero;fill:rgb(0%,0%,0%);fill-opacity:1;" d="M 25.933594 16.25 C 25.824219 16.277344 25.648438 16.289062 25.542969 16.277344 C 25.3125 16.253906 25.3125 16.316406 25.542969 16.378906 C 25.695312 16.421875 25.890625 16.402344 26.070312 16.316406 C 26.167969 16.269531 26.234375 16.191406 26.160156 16.199219 C 26.140625 16.203125 26.039062 16.226562 25.933594 16.25 Z M 25.933594 16.25 "/>
<path style=" stroke:none;fill-rule:nonzero;fill:rgb(0%,0%,0%);fill-opacity:1;" d="M 24.765625 23.800781 C 24.710938 23.9375 24.765625 23.984375 24.996094 24.011719 C 25.398438 24.054688 25.382812 24.1875 24.976562 24.1875 L 24.75 24.1875 L 24.75 24.546875 L 25.371094 24.558594 C 25.707031 24.566406 26.015625 24.558594 26.050781 24.539062 C 26.101562 24.519531 26.113281 24.460938 26.113281 24.175781 C 26.113281 23.960938 26.097656 23.820312 26.070312 23.792969 C 26.039062 23.761719 25.839844 23.75 25.40625 23.75 C 24.898438 23.75 24.78125 23.757812 24.765625 23.800781 Z M 24.765625 23.800781 "/>
<path style=" stroke:none;fill-rule:nonzero;fill:rgb(0%,0%,0%);fill-opacity:1;" d="M 36.78125 29.003906 C 36.78125 29.011719 36.773438 29.152344 36.769531 29.308594 C 36.757812 29.46875 36.710938 29.769531 36.660156 29.972656 C 36.484375 30.722656 36.46875 30.734375 35.777344 30.734375 C 35.503906 30.734375 35.28125 30.738281 35.28125 30.746094 C 35.28125 30.769531 35.808594 31.554688 35.917969 31.695312 L 36.042969 31.851562 L 35.953125 32.277344 C 35.8125 32.914062 35.808594 32.941406 35.851562 32.941406 C 35.875 32.941406 36.105469 32.824219 36.363281 32.6875 C 36.621094 32.542969 36.859375 32.429688 36.886719 32.429688 C 36.964844 32.429688 37.523438 32.960938 37.652344 33.15625 C 37.867188 33.484375 38.035156 33.621094 37.988281 33.433594 C 37.976562 33.382812 37.980469 33.242188 38 33.113281 C 38.023438 32.988281 38.054688 32.707031 38.074219 32.488281 C 38.09375 32.269531 38.117188 32.082031 38.128906 32.070312 C 38.140625 32.058594 38.269531 32.054688 38.414062 32.0625 C 38.65625 32.070312 38.683594 32.0625 38.683594 32.003906 C 38.683594 31.96875 38.660156 31.898438 38.625 31.855469 C 38.597656 31.8125 38.578125 31.738281 38.582031 31.695312 C 38.597656 31.597656 38.851562 31.390625 39.1875 31.203125 C 39.457031 31.046875 39.453125 31.050781 39.429688 31.023438 C 39.417969 31.011719 39.179688 30.914062 38.894531 30.808594 C 38.617188 30.699219 38.367188 30.59375 38.347656 30.570312 C 38.324219 30.546875 38.308594 30.464844 38.308594 30.375 C 38.304688 30.292969 38.269531 30.09375 38.226562 29.933594 C 38.183594 29.773438 38.144531 29.554688 38.144531 29.449219 C 38.140625 29.34375 38.121094 29.257812 38.105469 29.257812 C 38.085938 29.257812 37.941406 29.355469 37.78125 29.480469 C 37.625 29.601562 37.46875 29.710938 37.445312 29.71875 C 37.417969 29.730469 37.371094 29.679688 37.328125 29.597656 C 37.242188 29.433594 36.792969 28.941406 36.78125 29.003906 Z M 36.78125 29.003906 "/>
<path style=" stroke:none;fill-rule:nonzero;fill:rgb(0%,0%,0%);fill-opacity:1;" d="M 17.980469 45.398438 C 16.617188 45.496094 14.226562 45.730469 12.339844 45.945312 C 11.75 46.015625 10.886719 46.101562 10.421875 46.148438 C 9.960938 46.1875 9.40625 46.238281 9.1875 46.257812 C 8.972656 46.277344 8.328125 46.324219 7.753906 46.367188 C 4.742188 46.574219 4.679688 46.578125 4.636719 46.511719 C 4.625 46.488281 4.707031 46.476562 4.859375 46.476562 C 4.992188 46.472656 5.265625 46.457031 5.460938 46.4375 C 6.941406 46.304688 8.757812 46.140625 9.3125 46.09375 C 10.511719 45.984375 12.097656 45.796875 11.878906 45.785156 C 11.769531 45.78125 11.316406 45.824219 10.441406 45.910156 C 10.164062 45.9375 9.6875 45.980469 9.382812 46 C 9.078125 46.023438 8.699219 46.054688 8.542969 46.074219 C 8.015625 46.144531 6.054688 46.308594 5.105469 46.367188 C 4.75 46.386719 4.355469 46.421875 4.226562 46.4375 C 4.097656 46.460938 3.386719 46.488281 2.652344 46.496094 C 1.320312 46.523438 1.304688 46.523438 1.09375 46.613281 C 0.945312 46.675781 0.777344 46.710938 0.5625 46.726562 C 0.320312 46.746094 0.234375 46.765625 0.195312 46.816406 C 0.164062 46.863281 0.152344 47.050781 0.160156 47.542969 L 0.167969 48.207031 L 0.273438 48.203125 C 0.511719 48.199219 1.671875 48.105469 2.792969 48.007812 C 3.453125 47.949219 4.117188 47.890625 4.261719 47.878906 C 4.410156 47.867188 4.957031 47.816406 5.480469 47.769531 C 6.003906 47.71875 6.738281 47.65625 7.109375 47.625 C 7.484375 47.59375 8.273438 47.53125 8.863281 47.480469 C 9.457031 47.425781 10.140625 47.371094 10.386719 47.351562 C 10.632812 47.328125 11.066406 47.289062 11.355469 47.261719 C 11.640625 47.230469 12.300781 47.171875 12.824219 47.132812 C 13.347656 47.09375 14.023438 47.035156 14.328125 47.003906 C 14.632812 46.976562 15.292969 46.917969 15.796875 46.875 C 16.296875 46.835938 17.070312 46.769531 17.515625 46.730469 C 19.300781 46.574219 20.171875 46.507812 20.195312 46.527344 C 20.21875 46.554688 20.292969 46.761719 20.382812 47.042969 C 20.425781 47.160156 20.519531 47.398438 20.601562 47.5625 C 20.898438 48.164062 21.5625 48.660156 22.320312 48.847656 C 22.753906 48.953125 23.832031 49.003906 25.125 48.980469 C 26.296875 48.960938 26.585938 48.921875 27.085938 48.738281 C 27.394531 48.625 27.757812 48.390625 28.042969 48.132812 C 28.378906 47.824219 28.6875 47.25 28.800781 46.714844 L 28.847656 46.503906 L 29.207031 46.527344 C 29.40625 46.542969 29.730469 46.566406 29.925781 46.585938 C 30.125 46.601562 30.820312 46.660156 31.464844 46.710938 C 32.117188 46.765625 32.90625 46.828125 33.222656 46.859375 C 33.535156 46.886719 34.464844 46.96875 35.28125 47.042969 C 36.097656 47.113281 37.308594 47.21875 37.96875 47.277344 C 38.625 47.335938 39.273438 47.394531 39.402344 47.40625 C 39.53125 47.414062 40.207031 47.472656 40.90625 47.535156 C 41.601562 47.59375 42.976562 47.707031 43.949219 47.792969 C 44.925781 47.871094 46.140625 47.980469 46.652344 48.027344 C 47.167969 48.074219 47.835938 48.132812 48.140625 48.152344 C 48.445312 48.175781 48.738281 48.199219 48.796875 48.210938 L 48.890625 48.234375 L 48.890625 47.554688 C 48.890625 46.726562 48.90625 46.753906 48.449219 46.722656 C 48.195312 46.707031 48.113281 46.683594 47.996094 46.605469 L 47.855469 46.511719 L 47.019531 46.511719 C 46.558594 46.511719 45.851562 46.492188 45.449219 46.476562 C 44.753906 46.4375 42.160156 46.242188 41.855469 46.203125 C 41.773438 46.191406 41.4375 46.160156 41.101562 46.128906 C 40.769531 46.101562 40.164062 46.042969 39.757812 46 C 38.957031 45.921875 37.914062 45.828125 37.519531 45.800781 C 37.0625 45.773438 37.523438 45.847656 38.289062 45.929688 C 40.070312 46.121094 40.726562 46.1875 41.148438 46.21875 C 41.398438 46.238281 41.867188 46.277344 42.195312 46.308594 C 42.519531 46.335938 43.101562 46.386719 43.484375 46.421875 C 43.867188 46.453125 44.191406 46.488281 44.199219 46.5 C 44.222656 46.527344 42.910156 46.488281 42.265625 46.4375 C 42 46.421875 41.433594 46.378906 41.011719 46.351562 C 40.589844 46.324219 39.832031 46.257812 39.328125 46.207031 C 38.828125 46.160156 38.28125 46.105469 38.109375 46.09375 C 37.941406 46.082031 37.460938 46.03125 37.035156 45.980469 C 36.613281 45.929688 36.027344 45.867188 35.730469 45.835938 C 35.433594 45.808594 34.878906 45.75 34.5 45.710938 C 32.269531 45.472656 30.515625 45.34375 29.441406 45.34375 C 28.769531 45.347656 28.058594 45.386719 28.019531 45.433594 C 28.011719 45.441406 27.988281 45.65625 27.972656 45.898438 C 27.957031 46.148438 27.925781 46.4375 27.898438 46.546875 C 27.804688 46.988281 27.46875 47.492188 27.136719 47.695312 C 26.941406 47.8125 26.480469 47.960938 26.164062 48.007812 C 26.03125 48.03125 25.449219 48.058594 24.875 48.070312 C 22.925781 48.109375 22.21875 47.972656 21.640625 47.441406 C 21.433594 47.253906 21.242188 46.894531 21.152344 46.53125 C 21.117188 46.410156 21.082031 46.117188 21.070312 45.882812 C 21.054688 45.496094 21.042969 45.445312 20.976562 45.410156 C 20.859375 45.34375 18.824219 45.335938 17.980469 45.398438 Z M 17.980469 45.398438 "/>
</g>
</svg>
